<mxfile host="app.diagrams.net" agent="Mozilla/5.0 (Windows NT 10.0; Win64; x64) AppleWebKit/537.36 (KHTML, like Gecko) Chrome/134.0.0.0 YaBrowser/25.4.0.0 Safari/537.36" version="27.1.4">
  <diagram name="Страница — 1" id="S9RptDDGUc47DoX-DJQ6">
    <mxGraphModel dx="1058" dy="616" grid="1" gridSize="10" guides="1" tooltips="1" connect="1" arrows="1" fold="1" page="1" pageScale="1" pageWidth="827" pageHeight="1169" math="0" shadow="0">
      <root>
        <mxCell id="0" />
        <mxCell id="1" parent="0" />
        <mxCell id="zG5rlil1I7laRRqZ0y7o-2" value="" style="endArrow=classic;html=1;rounded=0;" edge="1" parent="1">
          <mxGeometry width="50" height="50" relative="1" as="geometry">
            <mxPoint x="399.5" y="90" as="sourcePoint" />
            <mxPoint x="400" y="140" as="targetPoint" />
            <Array as="points">
              <mxPoint x="400" y="80" />
            </Array>
          </mxGeometry>
        </mxCell>
        <mxCell id="zG5rlil1I7laRRqZ0y7o-10" value="" style="endArrow=classic;html=1;rounded=0;" edge="1" parent="1">
          <mxGeometry width="50" height="50" relative="1" as="geometry">
            <mxPoint x="399.5" y="200" as="sourcePoint" />
            <mxPoint x="400" y="280" as="targetPoint" />
          </mxGeometry>
        </mxCell>
        <mxCell id="zG5rlil1I7laRRqZ0y7o-12" value="Мария, да, Вы можете. Для этого нужно сделать перевод с кредитной карты на дебетовую карту Тинькофф. Только таким способом." style="rounded=0;whiteSpace=wrap;html=1;" vertex="1" parent="1">
          <mxGeometry x="259.5" y="280" width="281" height="60" as="geometry" />
        </mxCell>
        <mxCell id="zG5rlil1I7laRRqZ0y7o-13" value="" style="endArrow=classic;html=1;rounded=0;" edge="1" parent="1">
          <mxGeometry width="50" height="50" relative="1" as="geometry">
            <mxPoint x="399.5" y="340" as="sourcePoint" />
            <mxPoint x="400" y="420" as="targetPoint" />
          </mxGeometry>
        </mxCell>
        <mxCell id="zG5rlil1I7laRRqZ0y7o-15" value="Я Мария. Можно ли перевести деньги с кредитной карты на другую карту без снятия процентов?" style="text;html=1;align=center;verticalAlign=middle;whiteSpace=wrap;rounded=0;" vertex="1" parent="1">
          <mxGeometry x="414" y="230" width="336" height="30" as="geometry" />
        </mxCell>
        <mxCell id="zG5rlil1I7laRRqZ0y7o-16" value="Здравствуйте. Компания Тинькофф. Как я могу к Вам обращаться? Чем могу помочь?" style="rounded=0;whiteSpace=wrap;html=1;" vertex="1" parent="1">
          <mxGeometry x="255" y="140" width="290" height="60" as="geometry" />
        </mxCell>
        <mxCell id="zG5rlil1I7laRRqZ0y7o-17" value="Начало" style="ellipse;whiteSpace=wrap;html=1;aspect=fixed;" vertex="1" parent="1">
          <mxGeometry x="365" y="11" width="70" height="70" as="geometry" />
        </mxCell>
        <mxCell id="zG5rlil1I7laRRqZ0y7o-18" value="Спасибо. Больше ничего не интересует." style="text;html=1;align=center;verticalAlign=middle;whiteSpace=wrap;rounded=0;" vertex="1" parent="1">
          <mxGeometry x="414" y="370" width="206" height="30" as="geometry" />
        </mxCell>
        <mxCell id="zG5rlil1I7laRRqZ0y7o-19" value="Всего доброго. До свидания." style="rounded=0;whiteSpace=wrap;html=1;" vertex="1" parent="1">
          <mxGeometry x="259.5" y="420" width="280" height="60" as="geometry" />
        </mxCell>
      </root>
    </mxGraphModel>
  </diagram>
</mxfile>
